<svg width="72" height="72" viewBox="0 0 72 72" fill="none" xmlns="http://www.w3.org/2000/svg">
<path d="M58 22.12C58 34.998 48 36.998 48 49C48 55.196 41.754 55.718 37 55.718C32.894 55.718 23.828 54.16 23.828 48.996C23.828 37 14 35 14 22.12C14 10.058 24.57 0.279999 36.166 0.279999C47.766 0.279999 58 10.058 58 22.12Z" fill="#E1AB29"/>
<path d="M44.334 65C44.334 66.656 39.866 70 36 70C32.134 70 27.666 66.656 27.666 65C27.666 63.344 32.132 64 36 64C39.866 64 44.334 63.344 44.334 65Z" fill="#CCD6DD"/>
<path d="M45.414 20.586C45.2284 20.4001 45.008 20.2526 44.7654 20.152C44.5228 20.0514 44.2627 19.9996 44 19.9996C43.7373 19.9996 43.4772 20.0514 43.2346 20.152C42.992 20.2526 42.7716 20.4001 42.586 20.586L36 27.172L29.414 20.586C29.2283 20.4003 29.0079 20.253 28.7653 20.1525C28.5226 20.052 28.2626 20.0003 28 20.0003C27.7374 20.0003 27.4774 20.052 27.2348 20.1525C26.9921 20.253 26.7717 20.4003 26.586 20.586C26.4003 20.7717 26.253 20.9921 26.1525 21.2348C26.052 21.4774 26.0003 21.7374 26.0003 22C26.0003 22.2626 26.052 22.5226 26.1525 22.7653C26.253 23.0079 26.4003 23.2283 26.586 23.414L34 30.828V52C34 52.5304 34.2107 53.0392 34.5858 53.4142C34.9609 53.7893 35.4696 54 36 54C36.5304 54 37.0391 53.7893 37.4142 53.4142C37.7893 53.0392 38 52.5304 38 52V30.828L45.414 23.414C45.5999 23.2284 45.7474 23.008 45.848 22.7654C45.9486 22.5228 46.0004 22.2627 46.0004 22C46.0004 21.7373 45.9486 21.4772 45.848 21.2346C45.7474 20.992 45.5999 20.7716 45.414 20.586V20.586Z" fill="#E1AB29"/>
<path d="M48 62C48 63.0609 47.5786 64.0783 46.8284 64.8284C46.0783 65.5786 45.0609 66 44 66H28C26.9391 66 25.9217 65.5786 25.1716 64.8284C24.4214 64.0783 24 63.0609 24 62V50H48V62Z" fill="#99AAB5"/>
<path d="M23.998 64C23.4972 63.9981 23.0153 63.8084 22.6476 63.4684C22.2799 63.1284 22.0531 62.6628 22.0121 62.1636C21.9712 61.6645 22.119 61.1681 22.4263 60.7727C22.7337 60.3772 23.1782 60.1115 23.672 60.028L47.672 56.028C47.9312 55.9834 48.1966 55.9907 48.4529 56.0493C48.7092 56.108 48.9513 56.217 49.1652 56.3699C49.3791 56.5228 49.5606 56.7166 49.6991 56.9401C49.8376 57.1636 49.9303 57.4124 49.972 57.672C50.0152 57.931 50.007 58.1959 49.9478 58.4517C49.8885 58.7075 49.7794 58.9491 49.6267 59.1627C49.4741 59.3764 49.2808 59.5578 49.0579 59.6966C48.8351 59.8355 48.5871 59.9291 48.328 59.972L24.328 63.972C24.2191 63.9912 24.1086 64.0005 23.998 64V64ZM23.998 56C23.4972 55.9981 23.0153 55.8084 22.6476 55.4684C22.2799 55.1284 22.0531 54.6628 22.0121 54.1636C21.9712 53.6645 22.119 53.1681 22.4263 52.7727C22.7337 52.3772 23.1782 52.1115 23.672 52.028L47.672 48.028C47.9311 47.9837 48.1964 47.9911 48.4526 48.0499C48.7089 48.1087 48.9509 48.2177 49.1647 48.3706C49.3786 48.5234 49.56 48.7171 49.6986 48.9405C49.8371 49.1639 49.9301 49.4125 49.972 49.672C50.0152 49.931 50.007 50.1959 49.9478 50.4517C49.8885 50.7075 49.7794 50.9491 49.6267 51.1627C49.4741 51.3764 49.2808 51.5578 49.0579 51.6966C48.8351 51.8355 48.5871 51.9291 48.328 51.972L24.328 55.972C24.2191 55.9912 24.1086 56.0005 23.998 56V56Z" fill="#CCD6DD"/>
</svg>
